<?xml version="1.0" encoding="utf-8"?>
<!-- Generator: Adobe Illustrator 27.3.1, SVG Export Plug-In . SVG Version: 6.00 Build 0)  -->
<svg version="1.1" id="Layer_1" xmlns="http://www.w3.org/2000/svg" xmlns:xlink="http://www.w3.org/1999/xlink" x="0px" y="0px"
	 viewBox="0 0 500 500" style="enable-background:new 0 0 500 500;" xml:space="preserve">
<style type="text/css">
	.st0{fill:#EAF9F8;}
	.st1{fill:#E03C03;}
	.st2{fill:#FF6224;}
	.st3{fill:#FFC947;}
	.st4{fill:#20C3C5;}
	.st5{fill:#FFFFFF;}
	.st6{fill:#383873;}
	.st7{fill:#86BFBC;}
	.st8{fill:#B8E3E2;}
	.st9{fill:#9FCCC9;}
	
		.st10{opacity:0.15;fill:none;stroke:#000000;stroke-width:0.8185;stroke-linecap:round;stroke-miterlimit:10;enable-background:new    ;}
	.st11{fill:#382424;}
	.st12{fill:#FFAD94;}
	.st13{opacity:0.25;enable-background:new    ;}
	.st14{fill:#0C2059;}
	.st15{fill:#2E4780;}
	.st16{opacity:0.15;enable-background:new    ;}
	.st17{fill:#169799;}
	.st18{opacity:0.25;}
	.st19{fill:none;stroke:#000000;stroke-width:0.8185;stroke-linecap:round;stroke-miterlimit:10;}
	.st20{fill:none;stroke:#000000;stroke-width:0.8185;stroke-linecap:round;stroke-miterlimit:10;stroke-dasharray:4.1525,4.1525;}
	.st21{opacity:0.53;}
</style>
<g id="OBJECTS">
	<g>
		<path class="st0" d="M417.8,232.3c-23.3,34.9-73.2,143-60.9,183.2H178.2c0,0-25.8-19.2-50.9-52.7c-4.6-6.1-9.1-12.6-13.4-19.6
			c-4.6-7.4-9-15.3-13-23.6c-11.6-24.2-19.9-52.3-20.3-83.3C79.3,128.9,172.3,29.2,298.7,69.4C425,109.7,441.1,197.3,417.8,232.3z"
			/>
		<g>
			<g>
				<path class="st1" d="M305.9,416.7c-0.4,0-0.7-0.2-1-0.5l-95.3-118.5c-0.4-0.5-0.3-1.3,0.2-1.7c0.5-0.4,1.3-0.3,1.7,0.2
					l95.3,118.5c0.4,0.5,0.3,1.3-0.2,1.7C306.5,416.6,306.2,416.7,305.9,416.7z"/>
			</g>
			<g>
				<path class="st2" d="M158.1,416.7c-0.3,0-0.5-0.1-0.8-0.3c-0.5-0.4-0.6-1.2-0.2-1.7l95.3-118.5c0.4-0.5,1.2-0.6,1.7-0.2
					s0.6,1.2,0.2,1.7L159,416.2C158.8,416.5,158.5,416.7,158.1,416.7z"/>
			</g>
			<g>
				<path class="st2" d="M253.4,416.7c-0.4,0-0.7-0.2-1-0.5l-95.3-118.5c-0.4-0.5-0.3-1.3,0.2-1.7c0.5-0.4,1.3-0.3,1.7,0.2
					l95.3,118.5c0.4,0.5,0.3,1.3-0.2,1.7C254,416.6,253.7,416.7,253.4,416.7z"/>
			</g>
			<path class="st1" d="M175,300.1h-44.3c-1.7,0-3.1-1.4-3.1-3.1l0,0c0-1.7,1.4-3.1,3.1-3.1H175c1.7,0,3.1,1.4,3.1,3.1l0,0
				C178.1,298.7,176.7,300.1,175,300.1z"/>
			<path class="st2" d="M302.4,300.1H175.8c-1.7,0-3.1-1.4-3.1-3.1l0,0c0-1.7,1.4-3.1,3.1-3.1h126.5v6.2H302.4z"/>
			<g>
				<path class="st1" d="M209.2,356.2c0,1.9-1.5,3.4-3.4,3.4s-3.4-1.5-3.4-3.4s1.5-3.4,3.4-3.4C207.7,352.8,209.2,354.3,209.2,356.2
					z"/>
			</g>
			<path class="st3" d="M261.7,356.2c0,1.9-1.5,3.4-3.4,3.4s-3.4-1.5-3.4-3.4s1.5-3.4,3.4-3.4C260.2,352.8,261.7,354.3,261.7,356.2z
				"/>
		</g>
		<g>
			<path class="st4" d="M216,199.9h-44.6c-2.2,0-4-1.8-4-4v-33.2c0-2.2,1.8-4,4-4H216c2.2,0,4,1.8,4,4v33.2
				C220,198.1,218.2,199.9,216,199.9z"/>
			<path class="st5" d="M205.1,176.9h-1.7c-0.3-0.9-0.6-1.8-1.1-2.5l1.3-1.3c0.5-0.5,0.5-1.3,0-1.8l-1.8-1.8c-0.5-0.5-1.3-0.5-1.8,0
				l-1.4,1.4c-0.7-0.4-1.6-0.8-2.4-1v-2c0-0.7-0.6-1.2-1.2-1.2h-2.5c-0.7,0-1.2,0.6-1.2,1.2v2.1c-0.8,0.2-1.6,0.5-2.3,0.9l-1.5-1.5
				c-0.5-0.5-1.3-0.5-1.8,0l-1.8,1.8c-0.5,0.5-0.5,1.3,0,1.8l1.4,1.4c-0.5,0.7-0.8,1.5-1.1,2.4h-1.9c-0.7,0-1.2,0.6-1.2,1.2v2.5
				c0,0.7,0.6,1.2,1.2,1.2h1.7c0.2,0.9,0.5,1.8,1,2.7l-1.2,1.2c-0.5,0.5-0.5,1.3,0,1.8l1.8,1.8c0.5,0.5,1.3,0.5,1.8,0l1-1
				c0.8,0.5,1.8,1,2.7,1.2v1.4c0,0.7,0.6,1.2,1.2,1.2h2.5c0.7,0,1.2-0.6,1.2-1.2v-1.3c1-0.2,2-0.6,2.8-1.1l1,1
				c0.5,0.5,1.3,0.5,1.8,0l1.8-1.8c0.5-0.5,0.5-1.3,0-1.8l-1-1c0.5-0.8,0.9-1.8,1.1-2.8h1.5c0.7,0,1.2-0.6,1.2-1.2v-2.5
				C206.4,177.5,205.8,176.9,205.1,176.9z M195.1,185.9c-4.5,0.9-8.4-3-7.5-7.5c0.5-2.5,2.5-4.5,5-5c4.5-0.9,8.4,3,7.5,7.5
				C199.6,183.4,197.6,185.5,195.1,185.9z"/>
		</g>
		<g>
			<path class="st2" d="M283.2,177.2h-44.6c-2.2,0-4-1.8-4-4V140c0-2.2,1.8-4,4-4h44.6c2.2,0,4,1.8,4,4v33.2
				C287.2,175.4,285.4,177.2,283.2,177.2z"/>
			<g>
				<g>
					<g>
						<path class="st5" d="M252,163.5c-0.3,0-0.6-0.1-0.9-0.4l-5.5-5.9c-0.5-0.5-0.5-1.3,0-1.9l5.6-6c0.5-0.5,1.3-0.5,1.7,0
							c0.5,0.5,0.5,1.3,0,1.9l-4.8,5.1l4.7,5c0.5,0.5,0.5,1.3,0,1.9C252.6,163.4,252.3,163.5,252,163.5z"/>
					</g>
					<g>
						<path class="st5" d="M269.7,163.5c-0.3,0-0.6-0.1-0.9-0.4c-0.5-0.5-0.5-1.3,0-1.9l4.7-5l-4.8-5.1c-0.5-0.5-0.5-1.3,0-1.9
							c0.5-0.5,1.3-0.5,1.7,0l5.6,6c0.2,0.2,0.4,0.6,0.4,0.9s-0.1,0.7-0.4,0.9l-5.5,5.9C270.4,163.4,270.1,163.5,269.7,163.5z"/>
					</g>
				</g>
				<g>
					<path class="st5" d="M258.1,165.1c-0.2,0-0.3,0-0.5-0.1c-0.6-0.3-0.9-1-0.7-1.7l5.5-14.5c0.3-0.7,1-1,1.6-0.7s0.9,1,0.7,1.7
						l-5.5,14.5C259.1,164.8,258.6,165.1,258.1,165.1z"/>
				</g>
			</g>
		</g>
		<g>
			<g>
				<path class="st5" d="M323.4,185.1H212.8v-3.4c0-0.9,0.7-1.7,1.7-1.7h107.4c0.9,0,1.7,0.7,1.7,1.7L323.4,185.1L323.4,185.1z"/>
				<path class="st6" d="M320.3,244.1H215.8c-1.7,0-3.1-1.4-3.1-3.1v-55.9h110.7V241C323.4,242.7,322,244.1,320.3,244.1z"/>
				<g>
					<g>
						<path class="st2" d="M318.1,182.6c0,0.4-0.3,0.8-0.8,0.8c-0.4,0-0.8-0.3-0.8-0.8s0.3-0.8,0.8-0.8S318.1,182.1,318.1,182.6z"/>
						<path class="st2" d="M312.8,182.6c0,0.4-0.3,0.8-0.8,0.8c-0.4,0-0.8-0.3-0.8-0.8s0.3-0.8,0.8-0.8S312.8,182.1,312.8,182.6z"/>
						<path class="st2" d="M307.4,182.6c0,0.4-0.3,0.8-0.8,0.8c-0.4,0-0.8-0.3-0.8-0.8s0.3-0.8,0.8-0.8S307.4,182.1,307.4,182.6z"/>
					</g>
				</g>
				<path class="st4" d="M279.9,193.1h-61.5c-0.6,0-1.1-0.5-1.1-1.1l0,0c0-0.6,0.5-1.1,1.1-1.1h61.5c0.6,0,1.1,0.5,1.1,1.1l0,0
					C281,192.6,280.5,193.1,279.9,193.1z"/>
				<path class="st4" d="M279.9,199.9h-61.5c-0.6,0-1.1-0.5-1.1-1.1l0,0c0-0.6,0.5-1.1,1.1-1.1h61.5c0.6,0,1.1,0.5,1.1,1.1l0,0
					C281,199.4,280.5,199.9,279.9,199.9z"/>
				<path class="st4" d="M250.6,206.7h-32.1c-0.6,0-1.1-0.5-1.1-1.1l0,0c0-0.6,0.5-1.1,1.1-1.1h32.1c0.6,0,1.1,0.5,1.1,1.1l0,0
					C251.7,206.2,251.2,206.7,250.6,206.7z"/>
				<path class="st2" d="M279.9,220.3h-61.5c-0.6,0-1.1-0.5-1.1-1.1l0,0c0-0.6,0.5-1.1,1.1-1.1h61.5c0.6,0,1.1,0.5,1.1,1.1l0,0
					C281,219.8,280.5,220.3,279.9,220.3z"/>
				<path class="st2" d="M250.6,227.1h-32.1c-0.6,0-1.1-0.5-1.1-1.1l0,0c0-0.6,0.5-1.1,1.1-1.1h32.1c0.6,0,1.1,0.5,1.1,1.1l0,0
					C251.7,226.6,251.2,227.1,250.6,227.1z"/>
				<path class="st4" d="M250.6,233.9h-32.1c-0.6,0-1.1-0.5-1.1-1.1l0,0c0-0.6,0.5-1.1,1.1-1.1h32.1c0.6,0,1.1,0.5,1.1,1.1l0,0
					C251.7,233.4,251.2,233.9,250.6,233.9z"/>
				<path class="st5" d="M279.9,206.7h-23.1c-0.6,0-1.1-0.5-1.1-1.1l0,0c0-0.6,0.5-1.1,1.1-1.1h23.1c0.6,0,1.1,0.5,1.1,1.1l0,0
					C281,206.2,280.5,206.7,279.9,206.7z"/>
				<path class="st2" d="M310.5,191.4l-16.3,16.3c-0.4,0.4-1.1,0.4-1.5,0l0,0c-0.4-0.4-0.4-1.1,0-1.5l16.3-16.3
					c0.4-0.4,1.1-0.4,1.5,0l0,0C310.9,190.3,310.9,191,310.5,191.4z"/>
				<ellipse class="st2" cx="301.5" cy="222.3" rx="9.6" ry="9.6"/>
				<path class="st4" d="M300.3,229c0,3-2.4,5.5-5.5,5.5s-5.5-2.4-5.5-5.5s2.4-5.5,5.5-5.5C297.8,223.5,300.3,226,300.3,229z"/>
			</g>
			<polyline class="st6" points="212.8,238.1 212.8,257.6 230.6,239.7 			"/>
		</g>
		<g>
			<polygon class="st7" points="193.7,262.8 233,262.8 247.2,290.2 207.9,290.2 			"/>
			<path class="st5" d="M208.7,288.2l-11.8-22.6c-0.2-0.5,0.1-1,0.6-1h34c0.3,0,0.5,0.1,0.6,0.4l11.8,22.6c0.2,0.5-0.1,1-0.6,1h-34
				C209.1,288.5,208.8,288.4,208.7,288.2z"/>
			<rect x="207.9" y="290.2" class="st8" width="31.8" height="3.6"/>
			<path class="st9" d="M267,290.2h-31.4c-1,0-1.8,0.8-1.8,1.8l0,0c0,1,0.8,1.8,1.8,1.8H267c1,0,1.8-0.8,1.8-1.8l0,0
				C268.8,291,268,290.2,267,290.2z"/>
			<path class="st8" d="M207.9,290.2l-14.2-27.3l-0.7,0.5c-0.5,0.3-0.6,1-0.3,1.5l15.2,29V290.2L207.9,290.2z"/>
			<rect x="218.7" y="291.9" class="st9" width="3.5" height="0.6"/>
			<rect x="223.1" y="291.9" class="st9" width="3.5" height="0.6"/>
			<rect x="227.5" y="291.9" class="st9" width="3.5" height="0.6"/>
		</g>
		<g>
			<path class="st6" d="M279.5,343.7c0,0-32.6,25.4-37.7,31.8c-1.9,2.4-5.3,6.7-8.9,11.1c-5.8,7.2-11.9,14.7-12.6,14.9
				c-1.2,0.3-10.9-7.1-11.2-8.7c-0.2-1,8.7-16.3,16.4-28.5c4.7-7.5,8.9-13.8,10.4-15.2c3.9-3.6,28.2-16.5,28.2-16.5L279.5,343.7z"/>
			<path class="st10" d="M217.3,396c0,0,30.4-43.3,45.7-50.6"/>
			<path class="st11" d="M313.4,232.5c-0.3,0.8-0.7,1.6-1.2,2.4c-2.4,4.6-0.6,9.1-3.3,10.3c-0.2,0.1-0.3,0.1-0.5,0.2
				c-3.5,0.8-11.6-3.9-11.9-6.2s2.5-6.3,0-6.8s-3.8,3.7-3.8,3.7c-2,0.2-2.8-3.2-6.1-3.2c-0.5,0-0.9,0.1-1.4,0.2
				c-1.6,0.4-3,1.4-3.8,2.1c-0.7,0.5-1,1-1,1s-3-1.9-2.8-5.6c0.2-5.9,2.4-10.2,7.7-11.1c0.6-6.6,6-10.1,13.2-10.3
				c6.3-0.2,7.3,5.5,7.4,6.9c-0.1-1.1-0.4-4.5-1.9-6.9c3.2-0.1,6,2.1,5.2,9.5c0.7-2.2,3.3-3.6,5.2-2c-1.8,0-3.6,3.1-3.6,3.1
				s2.1,1.4,3.6,3.9C315.5,225.7,315,228.7,313.4,232.5z"/>
			<path class="st12" d="M308.9,245.2l-0.1,1.1l-0.3,3.8c0,0-5.8,5-9.1,0c0,0,0-0.1-0.1-0.1c-1-1.5-1.9-2.1-2.8-2.2
				c-1.8-0.2-3.3,1.6-4.8-0.4c-4.4-5.5-6.1-11.9-6.6-14.5c0.5-0.1,0.9-0.2,1.4-0.2c3.4,0,4.1,3.4,6.1,3.2c0,0,1.3-4.2,3.8-3.7
				s-0.4,4.5,0,6.8c0.2,1,1.9,2.5,4,3.8c2.5,1.5,5.6,2.7,7.6,2.5c0.1,0,0.2,0,0.4-0.1C308.6,245.3,308.7,245.2,308.9,245.2z"/>
			<path class="st13" d="M309.8,252.3c-2.6,1.8-7.4,2.1-7.4,2.1l-3.9-0.6c0,0-1.6-2.4-0.9-3.7c0.1-0.3,0.5-0.6,1-1
				c1.1-0.9,2.8-2,4.5-2.9c1.8-0.9,3.7-1.7,5-1.8C311.5,244.2,312.4,250.5,309.8,252.3z"/>
			<path class="st4" d="M309,316.1c-5.9,1.1-18.3-2.3-24.2-5c-1.8-0.8-2.9-1.5-3.2-2c-1.1-2,0-3.5,2.8-9.9c0.3-0.7,0.7-1.5,1-2.3
				c1.9-4.5,1.9-14.1,1.9-22.4c0-7.1-0.1-13.2,1.1-14.3c2.4-2.4,14.7-10.1,14.7-10.1l2.4,12.7c0,0,1.4,6.4,2.8,14.8
				C311,293,314,315.2,309,316.1z"/>
			<path class="st6" d="M313.1,321.8c0,0.6-5.8,14.2-10.7,16.1c-4.9,1.9-34.4-0.2-34.4-0.2l-14.6,9.5l3.1,28.7l2.1,20l0.1,0.6
				c-4.5,2.9-15.7,3.7-16.9,1.2l0,0c-1.2-2.5-19.1-56.4-12.1-65.7c7-9.3,51.9-23,51.9-23c1.2,0.7,2.5,1.4,4,2c5,2,11.3,3.3,16.2,4.1
				c1.9,0.3,3.5,0.5,4.7,0.6c1.6,0.2,2.5,0.3,2.5,0.3S313.1,321.2,313.1,321.8z"/>
			<path class="st14" d="M260.5,415.4h-37.9c-0.2-0.7,0.1-1.4,0.6-2c1.5-1.9,5.4-3.7,9.1-5.3c3.5-1.5,6.9-2.8,8.1-3.7
				c2.7-2.1,1.4-6.2,1.4-6.5c0.4,0.8,2,1.3,4,1.5c4,0.3,10-0.7,12.9-2.6l-0.1-0.6c1.1,2.2,1.7,12.8,1.8,17.4
				C260.5,414.6,260.5,415.4,260.5,415.4z"/>
			<path class="st15" d="M245.8,399.3c-0.1,1.8-0.4,4.7-0.9,5.5c-0.8,1.2-9.1,5.3-10.3,4.9c-0.8-0.2-1.7-1.1-2.2-1.6
				c3.5-1.5,6.9-2.8,8.1-3.7c2.7-2.1,1.4-6.2,1.4-6.5C242.2,398.7,243.7,399.2,245.8,399.3z"/>
			<path class="st15" d="M260.5,415.4h-37.9c-0.2-0.7,0.1-1.4,0.6-2h37.2C260.5,414.6,260.5,415.4,260.5,415.4z"/>
			<path class="st14" d="M220.2,401.4c0,0-2.9,7.6-5.4,11.6c-1,1.6-1.9,2.6-2.6,2.4c-2.3-0.9-25.8-20.8-23.5-22.3
				c0.3-0.2,0.9-0.4,1.5-0.4c2-0.3,5.4,0,8.5,0.3c2.7,0.3,5.2,0.6,6.5,0.6c3.3,0,3.7-1,3.7-1c0.1,0.4,0.7,1.1,1.6,2
				C213.5,397.4,219.4,401.6,220.2,401.4z"/>
			<path class="st15" d="M210.6,394.7c-5,3.3-10.1,1.3-11.2,0.6c-0.8-0.5-0.8-1.6-0.7-2.2c2.7,0.3,5.2,0.6,6.5,0.6
				c3.3,0,3.7-1,3.7-1C209.1,393.1,209.7,393.8,210.6,394.7z"/>
			<path class="st15" d="M214.9,413c-1,1.6-1.9,2.6-2.6,2.4c-2.3-0.9-25.8-20.8-23.5-22.3c0.3-0.2,0.9-0.4,1.5-0.4L214.9,413z"/>
			<path class="st12" d="M284.9,291.3c-1.8,2.6-5.1,6.5-7.8,6.1c-0.1,0-0.2,0-0.3-0.1c-5.2-0.9-35.5-8.5-36.9-8.8
				c-1.5-0.3-11.7-0.4-11.1-1.5s6.4-4.5,8-4.4s7.7,1.9,13.8,1.7c6.1-0.2,22.2,0,22.2,0l0.8-1.3l1.1-2
				C274.3,287,281.4,291.8,284.9,291.3z"/>
			<path class="st10" d="M284.9,313.5c0,0-1.4,7.4,4,9.9"/>
			<path class="st10" d="M282,319.4c0,0-36,15.4-37.8,20.1s9.2,56.4,9.2,56.4"/>
			<path class="st16" d="M313.1,321.8c0,0.6-5.8,14.2-10.7,16.1c-4.9,1.9-34.4-0.2-34.4-0.2l-14.6,9.5l3.1,28.7c0,0-6.2-32.8-6.2-35
				c0-1.8,40.7-13.5,51.5-25.8c4.2,0.7,7.3,0.9,7.3,0.9S313.1,321.2,313.1,321.8z"/>
			<path class="st13" d="M293.9,287c-2.5,3.6-6.6,8.1-9.5,12.3c0.3-0.7,0.7-1.5,1-2.3c1.9-4.5,1.9-14.1,1.9-22.4l8.7-5.8
				C296.1,268.7,298,281.2,293.9,287z"/>
			<path class="st17" d="M286.5,290.2c-0.4,0.3-0.8,0.7-1.1,1c-0.1,0-0.3,0.1-0.5,0.1c-3.4,0.5-10.6-4.4-10.3-10.3
				c0-0.4,0.4-1.3,0.9-2.5c2.9-5.9,11.7-19.1,13.4-18.5c0,0,5.7,0.9,7.2,8.6C297.5,275.9,292.3,284.8,286.5,290.2z"/>
			<path class="st13" d="M306.5,315.9c-1.2-0.1-2.9-0.4-4.7-0.6c-4.8-0.8-11.2-2-16.2-4.1c4.4-0.2,13.8-3.1,15-24.6
				c0.5,4,1.3,8.2,2.4,12.5C304.4,304.7,305.8,310.7,306.5,315.9z"/>
			<path class="st13" d="M304.2,244.7c-0.5,0.5-0.8,1-1.1,1.4c-1.8,0.9-3.5,2-4.5,2.9c-0.7-0.8-1.4-1.1-2.1-1.2l3.9-4.9
				C301.6,243.7,302.9,244.3,304.2,244.7z"/>
			<path class="st13" d="M284.9,291.3c-1.8,2.6-5.1,6.5-7.8,6.1c-0.1,0-0.2,0-0.3-0.1c-3.3-4.8-3.5-11.2-3.3-14.3l1.1-2
				C274.3,287,281.4,291.8,284.9,291.3z"/>
			<path class="st13" d="M313.4,232.5c-0.3,0.8-0.7,1.6-1.2,2.4c-1.2,2.2-1.3,4.5-1.5,6.3c-0.4-0.3-0.8-0.6-1.2-0.8
				c-2.5,1.5-4.2,3.1-5.3,4.4l0,0c-3.6-1.3-7.5-4-7.8-5.6c-0.4-2.3,2.5-6.3,0-6.8s-3.8,3.7-3.8,3.7c-2,0.2-2.8-3.2-6.1-3.2
				c-0.5,0-0.9,0.1-1.4,0.2c-1.6,0.4-3,1.4-3.8,2.1c0,0,3.8-5.3,9.7-4.2c0,0-0.9-1.7-4.9-1.5c8.4-2.7,13.7-1.7,16.3,1.4
				C304.5,233.2,309.4,236.3,313.4,232.5z"/>
		</g>
		<g>
			<path class="st8" d="M330.4,347.3h-29.2c0,0,23.1-6.8,23.1-52.7c0-0.6,0-1.2,0-1.8c-0.2-30.7-6.8-47.6-14.9-52.4
				c2.5-1.5,5.9-2.9,10.3-3.9c1.9-0.4,4.1-0.8,6.4-1c20-2,35.9,5.8,37.8,14.7C366,258.9,354.3,347.3,330.4,347.3z"/>
			<path class="st7" d="M324.4,294.5c0,45.9-23.1,52.7-23.1,52.7h-47.8l2-1.4l12.6-8.1l25.3-1.8c1.4-5.6,5.1-5.8,10.7-6.4
				c3.3-0.3,3.6-5.9,2.6-13.2c-0.7-5.3-2.1-11.5-3.6-17.3c-1.1-4.3-1.9-8.5-2.4-12.5c-0.6-4.7-0.9-9.2-0.9-13.5
				c-0.1-9.7,1.1-17.9,2.3-23.9c0.1-0.6,0.2-1.1,0.4-1.7c0,0,0,0,0-0.1c0.1-0.3,0.6-1.3,1.8-2.7l0,0c1.1-1.3,2.8-2.8,5.3-4.4
				c0.4,0.2,0.8,0.5,1.2,0.8c7.5,5.7,13.4,22.5,13.7,51.6C324.4,293.4,324.4,294,324.4,294.5z"/>
			<path class="st8" d="M315.2,415.4h-34.4c-1.2,0-1.7-1.5-0.8-2.2l8.6-6.7c3.8-3,6.1-7.6,6.1-12.4v-46.8h6.6V394
				c0,4.9,2.2,9.4,6.1,12.4l8.6,6.7C316.9,413.9,316.3,415.4,315.2,415.4z"/>
			<g class="st18">
				<g>
					<path class="st19" d="M341.4,237.2c0,0,0.3,0.6,0.7,1.9"/>
					<path class="st20" d="M343.3,243.1c1.2,4.4,2.7,11.2,3.9,20.5c3.1,24.2,0,58.1-21.1,79.5"/>
					<path class="st19" d="M324.6,344.6c-0.5,0.5-1,0.9-1.5,1.4"/>
				</g>
			</g>
			<path class="st16" d="M301.3,347.3V360c-2.3,1.2-4.6,2.1-6.6,2.8v-15.6h6.6V347.3z"/>
			<path class="st16" d="M310.4,327.4c-1.6,4.9-11.3,4-12.4,7.6c-2.5,7.6-3.9,4.3-13.5,5.2c-5.5,0.6-9.5,4.1-11.9,7h-19.1l2-1.4
				l12.6-8.1l25.3-1.8c1.4-5.6,5.1-5.8,10.7-6.4c3.3-0.3,3.6-5.9,2.6-13.2c-0.7-5.3-2.1-11.5-3.6-17.3c-1.1-4.3-1.9-8.5-2.4-12.5
				c-0.6-4.7-0.9-9.2-0.9-13.5C303.4,292.5,311.6,323.8,310.4,327.4z"/>
			<path class="st16" d="M324.4,294.5c0-0.6,0-1.2,0-1.8c-0.2-30.7-6.8-47.6-14.9-52.4c2.5-1.5,5.9-2.9,10.3-3.9
				c-1.3,1.9-2.7,4.8-2.1,7.9c1.2,5.5,14.4,26.5,9.3,60.1c-3.6,24.3-2.4,36.9,1.4,42.8h-27.2C301.3,347.3,324.4,340.5,324.4,294.5z"
				/>
		</g>
		<path class="st13" d="M157.5,269.5c0,1.1-0.1,2.1-0.3,3h-9.4c-2.8-1.8-7.3-5.5-10-10.9c2.5,2.7,6.8,6.1,11.2,7.1
			C152.8,269.6,155.6,269.2,157.5,269.5z"/>
		<g>
			<path class="st4" d="M179.3,232.3c-1,3.8-5.9,11.2-10.2,19.1c-4.8,8.6-9.1,17.9-7.4,23.7c0.4,1.5,0.6,2.6,0.6,3.3
				c0,2.6-1.9,1.8-3.9,0.3s-4-3.6-4-3.6l0.1-11.4c0,0-6.4-5.9-1.2-18.9c0.3-0.8,0.7-1.7,1.2-2.6c7.3-14.7,18.2-30.2,7.9-34.6
				C176.6,206.8,181.5,224.3,179.3,232.3z"/>
			<g class="st21">
				<path d="M162.3,207.7c2.7,0.6,5,2.4,6.5,4.7c0.4,0.6,0.7,1.2,1,1.8c0.2,0.6,0.5,1.3,0.7,1.9c0.2,0.7,0.4,1.3,0.5,2l0.2,1l0.1,1
					c-0.1,2.8-0.9,5.4-1.8,8c-1,2.6-2.1,5.1-3.2,7.6c-2.3,5-4.7,9.8-6.9,14.8c-1.1,2.5-2.1,5-2.9,7.6c-0.4,1.3-0.7,2.6-0.9,3.9
					s-0.2,2.7,0.3,3.9l0,0c0.1,0.2,0,0.4-0.2,0.5s-0.4,0-0.5-0.2l0,0c-0.5-1.4-0.4-2.9-0.3-4.2c0.2-1.4,0.5-2.7,0.9-4
					c0.8-2.6,1.9-5.2,3-7.7c2.2-5,4.8-9.8,7.1-14.8c1.2-2.5,2.3-4.9,3.3-7.5c0.9-2.5,1.8-5.2,1.9-7.9v-1l-0.2-1
					c-0.1-0.7-0.3-1.3-0.4-2c-0.2-0.7-0.4-1.3-0.7-1.9c-0.3-0.6-0.6-1.2-1-1.8C167.3,210.1,165,208.3,162.3,207.7z"/>
			</g>
			<path class="st17" d="M172.7,255.3c-4.4,11.5,0,20.3-6.6,21.5c-3,0.6-4.3-1.7-4.9-4.2c-0.7-3.1-0.2-6.6-0.2-6.6s1.1-2.8,3.5-5.6
				C166.4,258,169.1,255.9,172.7,255.3z"/>
			<path class="st8" d="M157.5,269.5c0,2.7-0.6,5-1.9,6.2c-0.1,0.1-0.2,0.2-0.4,0.3c-3.1,2.5-5.1-2.1-5.1-2.1s-8.2-4.1-12.3-12.3
				c-3.1-6.3-3.8-15.2,3.5-26.5c1.1,8.1,5.5,13.6,9.9,18.8l0,0c0.5,0.7,1.1,1.3,1.6,1.9C155.9,259.5,157.5,265.1,157.5,269.5z"/>
			<g class="st21">
				<path d="M141.3,235.1c-0.7,3.5-0.9,7.1-0.6,10.6c0.4,3.5,1.3,7,3.2,10c1.8,3,4.4,5.5,6.7,8.2c1.1,1.4,2.3,2.8,3,4.5
					c0.8,1.6,1.1,3.5,1,5.4c0,0.2-0.2,0.4-0.4,0.4s-0.4-0.2-0.4-0.4l0,0c0.2-1.7-0.1-3.4-0.8-5s-1.7-3-2.8-4.4
					c-2.2-2.7-4.8-5.3-6.6-8.4c-1.9-3.1-2.8-6.6-3.1-10.2C140.3,242.1,140.6,238.6,141.3,235.1z"/>
			</g>
			<g class="st18">
				<path d="M172.7,255.3c-1.3,1.5-2.4,3-3.5,4.5c-1.1,1.6-2.2,3.2-3.1,4.8c-1.9,3.3-3.5,6.8-4,10.6l0,0c0,0.2-0.2,0.4-0.5,0.3
					s-0.4-0.2-0.3-0.5l0,0c0.7-3.9,2.5-7.4,4.5-10.6c1-1.6,2.1-3.2,3.3-4.7C170.2,258.1,171.4,256.7,172.7,255.3z"/>
			</g>
			<path class="st8" d="M170,275.4l-2.8,17.2c-0.1,0.7-0.8,1.2-1.5,1.2h-17.4c-0.7,0-1.4-0.5-1.5-1.2l-2.3-14l-0.5-3.2
				c-0.2-0.9,0.5-1.8,1.5-1.8h23C169.5,273.6,170.2,274.4,170,275.4z"/>
			<path class="st7" d="M172.7,278.9h-31.4l0.8-4.7c0.2-1,1-1.7,2-1.7h25.7c1,0,1.9,0.7,2,1.7L172.7,278.9z"/>
			<path class="st13" d="M161,265.9c0,0-0.4,3.5,0.2,6.6h-4.1c0.2-0.9,0.3-1.9,0.3-3c0-4.5-1.6-10.1-4.6-13.7
				c-0.5-0.6-1.1-1.3-1.6-1.9l0,0c0.1-2.5,0.6-5.5,2.1-9.1c0.2,4.1,1.3,11.3,5.4,12.1c3.1,0.6,7.2-2.5,10.3-5.5
				c-1.6,3-3.2,6-4.5,8.9C162.1,263.1,161,265.9,161,265.9z"/>
			<path class="st13" d="M158.7,293.8h-10.4c-0.7,0-1.4-0.5-1.5-1.2l-2.2-13.7h9c-0.2,1.9-0.5,5.5,0.2,8.3
				C154.3,289.4,156.2,292.2,158.7,293.8z"/>
		</g>
		<g>
			<path class="st6" d="M237.6,152.2H193c-2.2,0-4-1.8-4-4V115c0-2.2,1.8-4,4-4h44.6c2.2,0,4,1.8,4,4v33.2
				C241.6,150.5,239.8,152.2,237.6,152.2z"/>
			<g>
				<path class="st5" d="M201.2,125.7v4.4c0,0.4,0.3,0.6,0.6,0.6h2.5c0.4,0,0.6-0.3,0.6-0.6v-4.4c0-0.4,0.3-0.6,0.6-0.6h0.2
					c0.4,0,0.6,0.3,0.6,0.6v12c0,0.4-0.3,0.6-0.6,0.6h-0.2c-0.4,0-0.6-0.3-0.6-0.6v-4.9c0-0.4-0.3-0.6-0.6-0.6h-2.5
					c-0.4,0-0.6,0.3-0.6,0.6v4.9c0,0.4-0.3,0.6-0.6,0.6h-0.2c-0.4,0-0.6-0.3-0.6-0.6v-12c0-0.4,0.3-0.6,0.6-0.6h0.2
					C200.9,125,201.2,125.3,201.2,125.7z"/>
				<path class="st5" d="M209.8,126.4h-1.1c-0.4,0-0.6-0.3-0.6-0.6v-0.1c0-0.4,0.3-0.6,0.6-0.6h5.1c0.4,0,0.6,0.3,0.6,0.6v0.1
					c0,0.4-0.3,0.6-0.6,0.6h-1.1c-0.4,0-0.6,0.3-0.6,0.6v10.7c0,0.4-0.3,0.6-0.6,0.6h-0.2c-0.4,0-0.6-0.3-0.6-0.6V127
					C210.4,126.7,210.1,126.4,209.8,126.4z"/>
				<path class="st5" d="M223.8,132.6c-0.1-1.8-0.2-3.7-0.1-5.2h-0.1c-0.3,1.5-0.7,3.1-1.1,4.6l-1.6,6.2h-1l-1.6-6
					c-0.4-1.7-0.8-3.3-1.1-4.9h-0.1c0,1.6-0.1,3.4-0.2,5.3l-0.2,5c0,0.3-0.3,0.6-0.6,0.6H216c-0.4,0-0.7-0.3-0.6-0.7l0.7-12
					c0-0.3,0.3-0.6,0.6-0.6h0.5c0.3,0,0.5,0.2,0.6,0.5l1.4,5.6c0.5,1.8,0.8,3.1,1.1,4.6h0.1c0.3-1.5,0.6-2.8,1-4.6l1.4-5.6
					c0.1-0.3,0.3-0.5,0.6-0.5h0.6c0.3,0,0.6,0.3,0.6,0.6l0.7,12c0,0.4-0.3,0.7-0.6,0.7h-0.1c-0.3,0-0.6-0.3-0.6-0.6L223.8,132.6z"/>
				<path class="st5" d="M228.3,125h0.2c0.4,0,0.6,0.3,0.6,0.6v10.8c0,0.4,0.3,0.6,0.6,0.6h2.5c0.4,0,0.6,0.3,0.6,0.6l0,0
					c0,0.4-0.3,0.6-0.6,0.6h-4c-0.4,0-0.6-0.3-0.6-0.6v-12C227.6,125.3,227.9,125,228.3,125z"/>
			</g>
		</g>
		<g>
			<g>
				<g>
					<path class="st6" d="M257.9,114.6c1.7,0,2.1-1.1,2.1-2.1c0-0.9-0.1-1.7-0.2-2.6s-0.2-1.7-0.2-2.7c0-2.7,1.7-3.9,3.8-3.9h0.4
						v1.6h-0.5c-1.3,0-1.8,0.9-1.8,2.3c0,0.8,0.1,1.6,0.2,2.3c0.1,0.8,0.2,1.5,0.2,2.2c0,2.4-0.8,3.2-2.1,3.6v0.1
						c1.3,0.4,2.1,1.2,2.1,3.6c0,0.8-0.1,1.5-0.2,2.3s-0.2,1.5-0.2,2.3c0,1.4,0.5,2.3,1.8,2.3h0.4v1.6h-0.4c-2,0-3.8-1-3.8-3.9
						c0-0.9,0.1-1.8,0.2-2.7c0.1-0.9,0.2-1.8,0.2-2.6c0-1-0.4-2.2-2.1-2.2L257.9,114.6L257.9,114.6z"/>
					<path class="st6" d="M288.9,116.1c-1.7,0-2.1,1.2-2.1,2.2c0,0.8,0.1,1.7,0.2,2.6s0.2,1.8,0.2,2.7c0,2.9-1.8,3.9-3.8,3.9H283
						v-1.6h0.4c1.4-0.2,1.8-0.9,1.8-2.3c0-0.8-0.1-1.6-0.2-2.3c-0.1-0.8-0.2-1.5-0.2-2.3c0-2.4,0.8-3.2,2.1-3.6v-0.1
						c-1.3-0.4-2.1-1.2-2.1-3.6c0-0.7,0.1-1.5,0.2-2.2s0.2-1.5,0.2-2.3c0-1.4-0.5-2.1-1.8-2.3H283v-1.6h0.4c2.2,0,3.8,1.2,3.8,3.9
						c0,0.9-0.1,1.8-0.2,2.7c-0.1,0.8-0.2,1.7-0.2,2.6c0,1,0.4,2.1,2.1,2.1L288.9,116.1L288.9,116.1z"/>
				</g>
			</g>
			<polygon class="st2" points="278.4,118.3 278.4,112.5 273.4,109.6 268.3,112.5 268.3,118.3 273.4,121.3 			"/>
		</g>
		<g>
			<path class="st2" d="M316.5,147.4c-4.8-2.4-10.5-1.4-14.2,2.3c-4.6,4.6-4.8,12.1-0.5,16.9l-1.9-0.2c-0.2,0-0.4,0.1-0.5,0.4
				c0,0.2,0.1,0.4,0.4,0.5l2.8,0.3c0.1,0,0.2,0,0.3-0.1c0.1-0.1,0.1-0.2,0.2-0.3l0.3-2.7c0-0.2-0.1-0.4-0.4-0.5
				c-0.2,0-0.4,0.1-0.5,0.4l-0.2,1.7c-4-4.5-3.9-11.5,0.4-15.8c3.5-3.5,8.8-4.4,13.3-2.2c0.2,0.1,0.4,0,0.5-0.2
				C316.8,147.8,316.7,147.5,316.5,147.4z"/>
			<path class="st2" d="M305.9,170.1c4.8,2.4,10.5,1.4,14.2-2.3c4.6-4.6,4.8-12.1,0.5-16.9l1.9,0.2c0.2,0,0.4-0.1,0.5-0.4
				c0-0.2-0.1-0.4-0.4-0.5l-2.8-0.3c-0.1,0-0.2,0-0.3,0.1s-0.1,0.2-0.2,0.3L319,153c0,0.2,0.1,0.4,0.4,0.5c0.2,0,0.4-0.1,0.5-0.4
				l0.2-1.7c4,4.5,3.9,11.5-0.4,15.8c-3.5,3.5-8.8,4.4-13.3,2.2c-0.2-0.1-0.4,0-0.5,0.2C305.6,169.7,305.6,170,305.9,170.1z"/>
		</g>
		<g>
			<path class="st2" d="M415.3,193.1h-74.1c-1.4,0-2.4-1.1-2.4-2.4l0,0c0-1.4,1.1-2.4,2.4-2.4h74.1c1.4,0,2.4,1.1,2.4,2.4l0,0
				C417.8,192,416.7,193.1,415.3,193.1z"/>
			<path class="st4" d="M388.9,203.7h-47.6c-1.4,0-2.4-1.1-2.4-2.4l0,0c0-1.4,1.1-2.4,2.4-2.4h47.6c1.4,0,2.4,1.1,2.4,2.4l0,0
				C391.3,202.6,390.2,203.7,388.9,203.7z"/>
			<path class="st4" d="M388.9,215.1h-47.6c-1.4,0-2.4-1.1-2.4-2.4l0,0c0-1.4,1.1-2.4,2.4-2.4h47.6c1.4,0,2.4,1.1,2.4,2.4l0,0
				C391.3,214,390.2,215.1,388.9,215.1z"/>
		</g>
		<g>
			<path class="st4" d="M152.7,152.4h-38.5c-1.3,0-2.4-1.1-2.4-2.4l0,0c0-1.4,1.1-2.4,2.4-2.4h38.5c1.4,0,2.4,1.1,2.4,2.4l0,0
				C155.1,151.3,154,152.4,152.7,152.4z"/>
			<path class="st2" d="M138.1,163.1h-23.9c-1.3,0-2.4-1.1-2.4-2.4l0,0c0-1.4,1.1-2.4,2.4-2.4h23.9c1.4,0,2.4,1.1,2.4,2.4l0,0
				C140.6,162,139.5,163.1,138.1,163.1z"/>
			<path class="st2" d="M138.1,174.5h-23.9c-1.3,0-2.4-1.1-2.4-2.4l0,0c0-1.4,1.1-2.4,2.4-2.4h23.9c1.4,0,2.4,1.1,2.4,2.4l0,0
				C140.6,173.4,139.5,174.5,138.1,174.5z"/>
		</g>
		<g>
			<path class="st17" d="M381.9,329.7c-2.4,7-5.3,13-8.3,18.5c-10.4,18.9-22.4,30.9-22.8,48.6c0,0-3.7-16.6-0.7-35.5
				c1.7-10.6,5.5-22,13.2-31.6c21.6-26.6,18.4-50.8,18.4-50.8S392.6,298.7,381.9,329.7z"/>
			<g class="st18">
				<path d="M356.5,376.1c-0.3-2.2-0.2-4.4,0-6.5s0.6-4.3,1.2-6.4c1.1-4.2,2.7-8.2,4.6-12c0.9-1.9,2-3.8,3.1-5.6l3.5-5.4
					c2.2-3.6,4.1-7.4,5.7-11.4c1.6-3.9,2.9-8,4-12.1s2.1-8.3,2.8-12.5c0.7-4.2,1.3-8.4,1.5-12.7c0.1-2.1,0.2-4.3,0.1-6.4
					c-0.1-1.1-0.1-2.1-0.3-3.2c-0.2-1-0.4-2.1-0.9-3.1c0.5,0.9,0.7,2,0.9,3.1c0.2,1.1,0.3,2.1,0.3,3.2c0.1,2.1,0.1,4.3,0,6.4
					c-0.2,4.3-0.7,8.5-1.4,12.7c-0.7,4.2-1.6,8.4-2.7,12.5s-2.4,8.2-3.9,12.2s-3.4,7.9-5.6,11.6L366,346c-1.1,1.8-2.2,3.7-3.1,5.6
					c-1.9,3.8-3.5,7.8-4.5,11.9c-0.5,2-0.9,4.1-1.1,6.2s-0.3,4.2,0,6.3l0,0c0,0.2-0.1,0.4-0.4,0.5
					C356.7,376.4,356.5,376.3,356.5,376.1z"/>
			</g>
			<path class="st13" d="M373.7,348.2c-10.4,18.9-22.4,30.9-22.8,48.6c0,0-3.7-16.6-0.7-35.5C356.8,358.5,366.3,354,373.7,348.2z"/>
			<path class="st4" d="M356.9,415.4c0,0-7.6-12.9,10.3-28.9s31.9-37,29.2-54.1c-17.1,19.9-62.6,48.1-49.8,83H356.9z"/>
			<g class="st18">
				<path d="M396.4,332.4c-1.7,3.8-4,7.2-6.5,10.6c-2.5,3.3-5.2,6.4-8.1,9.3c-2.9,3-6.1,5.6-9.2,8.3c-3.1,2.7-6,5.7-8.5,8.9
					c-5.1,6.5-9,13.9-11.4,21.7c-1.2,3.9-2,8-2.1,12.1s0.4,8.2,2,12c0.1,0.2,0,0.4-0.2,0.5s-0.4,0-0.5-0.2l0,0
					c-1.7-3.9-2.2-8.1-2-12.3c0.1-4.2,1-8.3,2.2-12.3c2.5-7.9,6.5-15.3,11.7-21.8c2.6-3.2,5.5-6.2,8.7-8.9c3.2-2.6,6.4-5.2,9.3-8.2
					c2.9-2.9,5.7-6,8.2-9.3C392.3,339.6,394.6,336.2,396.4,332.4z"/>
			</g>
		</g>
		<g>
			<path class="st17" d="M100.1,321.8c0,0-9.3-8.5-14.3-29.8c28.6,24.2,35.6,45.8,35.6,45.8L100.1,321.8z"/>
			<g class="st18">
				<path d="M85.8,292c4,5.7,7.9,11.4,11.7,17.3c1.9,2.9,3.7,5.9,5.5,8.8c1.8,3,3.5,6,5,9.2c0.1,0.2,0,0.4-0.2,0.5s-0.4,0-0.5-0.2
					l0,0l0,0c-1.4-3.2-3-6.2-4.8-9.2c-1.7-3-3.5-6-5.4-8.9C93.4,303.6,89.6,297.8,85.8,292z"/>
			</g>
			<path class="st4" d="M120.8,333.7c-5.1-4.6-12.8-9.2-20-14.2c-9.6-6.6-18.6-13.8-20.3-22.6c-3.8,31.8,33.2,46.1,33.2,46.1
				l0.1,0.1l13.4,19.6C127.2,362.8,132.7,344.5,120.8,333.7z"/>
			<g class="st18">
				<path d="M80.5,297c0,3.5,1.1,7,2.5,10.2c1.6,3.2,3.7,6.1,6.2,8.5c2.5,2.5,5.4,4.5,8.4,6.4s6,3.8,8.9,5.8
					c5.8,4,11.4,8.6,15.3,14.6c4,6,5.8,13.2,5.8,20.3c0,0.2-0.2,0.4-0.4,0.4s-0.4-0.2-0.4-0.4l0,0c0.1-7-1.7-14.1-5.5-20
					s-9.3-10.6-15.1-14.6c-2.9-2-5.9-3.9-8.8-5.9s-5.8-4-8.4-6.5c-2.5-2.5-4.6-5.4-6.1-8.6C81.5,304,80.5,300.5,80.5,297z"/>
			</g>
		</g>
		<path class="st0" d="M384.2,429.6H135.6c-3.9,0-7.1-3.2-7.1-7.1l0,0c0-3.9,3.2-7.1,7.1-7.1h248.6c3.9,0,7.1,3.2,7.1,7.1l0,0
			C391.3,426.4,388.1,429.6,384.2,429.6z"/>
	</g>
</g>
</svg>
